<mxfile host="app.diagrams.net" agent="Mozilla/5.0 (Windows NT 10.0; Win64; x64) AppleWebKit/537.36 (KHTML, like Gecko) Chrome/128.0.0.0 Safari/537.36 Edg/128.0.0.0" version="24.7.8">
  <diagram name="Page-1" id="opSviie7X8ipbg6NbYaV">
    <mxGraphModel dx="2632" dy="2026" grid="1" gridSize="10" guides="1" tooltips="1" connect="1" arrows="1" fold="1" page="1" pageScale="1" pageWidth="850" pageHeight="1100" math="0" shadow="0">
      <root>
        <mxCell id="0" />
        <mxCell id="1" parent="0" />
        <mxCell id="uPHYr8hVOU7tiOj3akhB-212" style="edgeStyle=orthogonalEdgeStyle;rounded=0;orthogonalLoop=1;jettySize=auto;html=1;exitX=0.5;exitY=1;exitDx=0;exitDy=0;entryX=0.516;entryY=-0.002;entryDx=0;entryDy=0;entryPerimeter=0;" edge="1" parent="1" source="uPHYr8hVOU7tiOj3akhB-419" target="uPHYr8hVOU7tiOj3akhB-222">
          <mxGeometry relative="1" as="geometry">
            <mxPoint x="210" y="-740" as="targetPoint" />
            <mxPoint x="207.67999999999995" y="-790" as="sourcePoint" />
            <Array as="points">
              <mxPoint x="212" y="-750" />
            </Array>
          </mxGeometry>
        </mxCell>
        <mxCell id="uPHYr8hVOU7tiOj3akhB-602" value="No" style="edgeLabel;html=1;align=center;verticalAlign=middle;resizable=0;points=[];" vertex="1" connectable="0" parent="uPHYr8hVOU7tiOj3akhB-212">
          <mxGeometry x="-0.2743" y="-1" relative="1" as="geometry">
            <mxPoint as="offset" />
          </mxGeometry>
        </mxCell>
        <mxCell id="uPHYr8hVOU7tiOj3akhB-213" value="" style="group" vertex="1" connectable="0" parent="1">
          <mxGeometry x="139.99999999999986" y="-540" width="140" height="100" as="geometry" />
        </mxCell>
        <mxCell id="uPHYr8hVOU7tiOj3akhB-214" value="" style="rhombus;whiteSpace=wrap;html=1;strokeColor=#3CAADE;" vertex="1" parent="uPHYr8hVOU7tiOj3akhB-213">
          <mxGeometry width="140" height="100" as="geometry" />
        </mxCell>
        <mxCell id="uPHYr8hVOU7tiOj3akhB-215" value="Is the user status &lt;b&gt;away&lt;/b&gt;?" style="text;html=1;align=center;verticalAlign=middle;whiteSpace=wrap;rounded=0;" vertex="1" parent="uPHYr8hVOU7tiOj3akhB-213">
          <mxGeometry x="32.5" y="31.25" width="75" height="37.5" as="geometry" />
        </mxCell>
        <mxCell id="uPHYr8hVOU7tiOj3akhB-216" value="" style="group" vertex="1" connectable="0" parent="1">
          <mxGeometry x="340.3099999999998" y="-540" width="140" height="100" as="geometry" />
        </mxCell>
        <mxCell id="uPHYr8hVOU7tiOj3akhB-217" value="" style="rhombus;whiteSpace=wrap;html=1;strokeColor=#3CAADE;" vertex="1" parent="uPHYr8hVOU7tiOj3akhB-216">
          <mxGeometry width="140" height="100" as="geometry" />
        </mxCell>
        <mxCell id="uPHYr8hVOU7tiOj3akhB-218" value="Is the user status &lt;b&gt;online&lt;/b&gt;?" style="text;html=1;align=center;verticalAlign=middle;whiteSpace=wrap;rounded=0;" vertex="1" parent="uPHYr8hVOU7tiOj3akhB-216">
          <mxGeometry x="26.5" y="31.25" width="87" height="37.5" as="geometry" />
        </mxCell>
        <mxCell id="uPHYr8hVOU7tiOj3akhB-238" style="edgeStyle=orthogonalEdgeStyle;rounded=0;orthogonalLoop=1;jettySize=auto;html=1;" edge="1" parent="1" source="uPHYr8hVOU7tiOj3akhB-230">
          <mxGeometry relative="1" as="geometry">
            <Array as="points">
              <mxPoint x="210" y="-550" />
              <mxPoint x="210" y="-550" />
            </Array>
            <mxPoint x="210" y="-540" as="targetPoint" />
          </mxGeometry>
        </mxCell>
        <mxCell id="uPHYr8hVOU7tiOj3akhB-239" style="edgeStyle=orthogonalEdgeStyle;rounded=0;orthogonalLoop=1;jettySize=auto;html=1;entryX=0.5;entryY=0;entryDx=0;entryDy=0;" edge="1" parent="1" source="uPHYr8hVOU7tiOj3akhB-234" target="uPHYr8hVOU7tiOj3akhB-217">
          <mxGeometry relative="1" as="geometry" />
        </mxCell>
        <mxCell id="uPHYr8hVOU7tiOj3akhB-240" style="edgeStyle=orthogonalEdgeStyle;rounded=0;orthogonalLoop=1;jettySize=auto;html=1;" edge="1" parent="1" source="uPHYr8hVOU7tiOj3akhB-241">
          <mxGeometry relative="1" as="geometry">
            <mxPoint x="210" y="-350" as="targetPoint" />
            <Array as="points">
              <mxPoint x="10" y="-400" />
              <mxPoint x="210" y="-400" />
            </Array>
          </mxGeometry>
        </mxCell>
        <mxCell id="uPHYr8hVOU7tiOj3akhB-610" value="Yes" style="edgeLabel;html=1;align=center;verticalAlign=middle;resizable=0;points=[];" vertex="1" connectable="0" parent="uPHYr8hVOU7tiOj3akhB-240">
          <mxGeometry x="-0.8936" relative="1" as="geometry">
            <mxPoint as="offset" />
          </mxGeometry>
        </mxCell>
        <mxCell id="uPHYr8hVOU7tiOj3akhB-611" style="edgeStyle=orthogonalEdgeStyle;rounded=0;orthogonalLoop=1;jettySize=auto;html=1;" edge="1" parent="1" source="uPHYr8hVOU7tiOj3akhB-241">
          <mxGeometry relative="1" as="geometry">
            <mxPoint x="-190" y="923.4225643382352" as="targetPoint" />
          </mxGeometry>
        </mxCell>
        <mxCell id="uPHYr8hVOU7tiOj3akhB-612" value="No" style="edgeLabel;html=1;align=center;verticalAlign=middle;resizable=0;points=[];" vertex="1" connectable="0" parent="uPHYr8hVOU7tiOj3akhB-611">
          <mxGeometry x="-0.9572" y="-1" relative="1" as="geometry">
            <mxPoint as="offset" />
          </mxGeometry>
        </mxCell>
        <mxCell id="uPHYr8hVOU7tiOj3akhB-241" value="" style="rhombus;whiteSpace=wrap;html=1;strokeColor=#3CAADE;" vertex="1" parent="1">
          <mxGeometry x="-60.00000000000023" y="-540" width="140" height="100" as="geometry" />
        </mxCell>
        <mxCell id="uPHYr8hVOU7tiOj3akhB-242" value="Is the user status &lt;b&gt;offline&lt;/b&gt;?" style="text;html=1;align=center;verticalAlign=middle;whiteSpace=wrap;rounded=0;" vertex="1" parent="1">
          <mxGeometry x="-22.820000000000164" y="-508.75" width="75" height="37.5" as="geometry" />
        </mxCell>
        <mxCell id="uPHYr8hVOU7tiOj3akhB-243" style="edgeStyle=orthogonalEdgeStyle;rounded=0;orthogonalLoop=1;jettySize=auto;html=1;entryX=0.5;entryY=0;entryDx=0;entryDy=0;" edge="1" parent="1" source="uPHYr8hVOU7tiOj3akhB-226" target="uPHYr8hVOU7tiOj3akhB-241">
          <mxGeometry relative="1" as="geometry">
            <Array as="points">
              <mxPoint x="9.67999999999995" y="-560" />
              <mxPoint x="9.67999999999995" y="-560" />
            </Array>
          </mxGeometry>
        </mxCell>
        <mxCell id="uPHYr8hVOU7tiOj3akhB-244" style="edgeStyle=orthogonalEdgeStyle;rounded=0;orthogonalLoop=1;jettySize=auto;html=1;entryX=0.5;entryY=0;entryDx=0;entryDy=0;" edge="1" parent="1" source="uPHYr8hVOU7tiOj3akhB-214" target="uPHYr8hVOU7tiOj3akhB-429">
          <mxGeometry relative="1" as="geometry">
            <mxPoint x="200" y="-370" as="targetPoint" />
            <Array as="points">
              <mxPoint x="210" y="-420" />
              <mxPoint x="210" y="-420" />
            </Array>
          </mxGeometry>
        </mxCell>
        <mxCell id="uPHYr8hVOU7tiOj3akhB-609" value="Yes" style="edgeLabel;html=1;align=center;verticalAlign=middle;resizable=0;points=[];" vertex="1" connectable="0" parent="uPHYr8hVOU7tiOj3akhB-244">
          <mxGeometry x="-0.7158" relative="1" as="geometry">
            <mxPoint as="offset" />
          </mxGeometry>
        </mxCell>
        <mxCell id="uPHYr8hVOU7tiOj3akhB-245" style="edgeStyle=orthogonalEdgeStyle;rounded=0;orthogonalLoop=1;jettySize=auto;html=1;entryX=0.5;entryY=0;entryDx=0;entryDy=0;" edge="1" parent="1" source="uPHYr8hVOU7tiOj3akhB-217" target="uPHYr8hVOU7tiOj3akhB-429">
          <mxGeometry relative="1" as="geometry">
            <mxPoint x="207.67999999999995" y="-361" as="targetPoint" />
            <Array as="points">
              <mxPoint x="410" y="-400" />
              <mxPoint x="210" y="-400" />
            </Array>
          </mxGeometry>
        </mxCell>
        <mxCell id="uPHYr8hVOU7tiOj3akhB-608" value="Yes" style="edgeLabel;html=1;align=center;verticalAlign=middle;resizable=0;points=[];" vertex="1" connectable="0" parent="uPHYr8hVOU7tiOj3akhB-245">
          <mxGeometry x="-0.8843" relative="1" as="geometry">
            <mxPoint as="offset" />
          </mxGeometry>
        </mxCell>
        <mxCell id="uPHYr8hVOU7tiOj3akhB-416" value="&lt;font style=&quot;font-size: 36px;&quot;&gt;Mattermost Push Notification Flow Chart&lt;/font&gt;" style="text;html=1;align=center;verticalAlign=middle;whiteSpace=wrap;rounded=0;fillColor=none;fontStyle=1;fontColor=#666666;" vertex="1" parent="1">
          <mxGeometry x="160" y="-1050" width="560" height="30" as="geometry" />
        </mxCell>
        <mxCell id="uPHYr8hVOU7tiOj3akhB-419" value="" style="rhombus;whiteSpace=wrap;html=1;strokeColor=#3CAADE;" vertex="1" parent="1">
          <mxGeometry x="142.18" y="-851" width="140" height="80" as="geometry" />
        </mxCell>
        <mxCell id="uPHYr8hVOU7tiOj3akhB-420" value="" style="group;rounded=1;glass=0;" vertex="1" connectable="0" parent="1">
          <mxGeometry x="52.18" y="-953" width="320" height="62" as="geometry" />
        </mxCell>
        <mxCell id="uPHYr8hVOU7tiOj3akhB-421" value="" style="rounded=0;whiteSpace=wrap;html=1;fontColor=#858585;strokeColor=#666666;fillColor=#666666;" vertex="1" parent="uPHYr8hVOU7tiOj3akhB-420">
          <mxGeometry y="2" width="320" height="60" as="geometry" />
        </mxCell>
        <mxCell id="uPHYr8hVOU7tiOj3akhB-422" value="Message is posted" style="text;html=1;align=center;verticalAlign=middle;whiteSpace=wrap;rounded=0;fontColor=#ffffff;" vertex="1" parent="uPHYr8hVOU7tiOj3akhB-420">
          <mxGeometry x="94" width="130" height="30" as="geometry" />
        </mxCell>
        <mxCell id="uPHYr8hVOU7tiOj3akhB-423" value="Should a desktop notification be triggered?" style="text;html=1;align=center;verticalAlign=middle;whiteSpace=wrap;rounded=0;fontColor=#FFFFFF;fontStyle=1" vertex="1" parent="uPHYr8hVOU7tiOj3akhB-420">
          <mxGeometry x="10" y="29" width="300" height="30" as="geometry" />
        </mxCell>
        <mxCell id="uPHYr8hVOU7tiOj3akhB-424" value="Is the user in&lt;br&gt;&lt;b&gt;Do Not Disturb&lt;/b&gt;?" style="text;html=1;align=center;verticalAlign=middle;whiteSpace=wrap;rounded=0;" vertex="1" parent="1">
          <mxGeometry x="157.18" y="-827" width="110" height="30" as="geometry" />
        </mxCell>
        <mxCell id="uPHYr8hVOU7tiOj3akhB-425" style="edgeStyle=orthogonalEdgeStyle;rounded=0;orthogonalLoop=1;jettySize=auto;html=1;entryX=0.5;entryY=0;entryDx=0;entryDy=0;" edge="1" parent="1" source="uPHYr8hVOU7tiOj3akhB-429" target="uPHYr8hVOU7tiOj3akhB-435">
          <mxGeometry relative="1" as="geometry" />
        </mxCell>
        <mxCell id="uPHYr8hVOU7tiOj3akhB-426" value="No" style="edgeLabel;html=1;align=center;verticalAlign=middle;resizable=0;points=[];" vertex="1" connectable="0" parent="uPHYr8hVOU7tiOj3akhB-425">
          <mxGeometry x="-0.2766" relative="1" as="geometry">
            <mxPoint as="offset" />
          </mxGeometry>
        </mxCell>
        <mxCell id="uPHYr8hVOU7tiOj3akhB-427" style="edgeStyle=orthogonalEdgeStyle;rounded=0;orthogonalLoop=1;jettySize=auto;html=1;entryX=0.5;entryY=0;entryDx=0;entryDy=0;" edge="1" parent="1" source="uPHYr8hVOU7tiOj3akhB-429" target="uPHYr8hVOU7tiOj3akhB-540">
          <mxGeometry relative="1" as="geometry" />
        </mxCell>
        <mxCell id="uPHYr8hVOU7tiOj3akhB-428" value="Yes" style="edgeLabel;html=1;align=center;verticalAlign=middle;resizable=0;points=[];" vertex="1" connectable="0" parent="uPHYr8hVOU7tiOj3akhB-427">
          <mxGeometry x="-0.9366" y="1" relative="1" as="geometry">
            <mxPoint as="offset" />
          </mxGeometry>
        </mxCell>
        <mxCell id="uPHYr8hVOU7tiOj3akhB-429" value="" style="rhombus;whiteSpace=wrap;html=1;strokeColor=#047D7E;" vertex="1" parent="1">
          <mxGeometry x="140" y="-350" width="140" height="78" as="geometry" />
        </mxCell>
        <mxCell id="uPHYr8hVOU7tiOj3akhB-430" value="Is the &lt;b&gt;channel muted&lt;/b&gt;?" style="text;html=1;align=center;verticalAlign=middle;whiteSpace=wrap;rounded=0;" vertex="1" parent="1">
          <mxGeometry x="156" y="-326" width="110" height="30" as="geometry" />
        </mxCell>
        <mxCell id="uPHYr8hVOU7tiOj3akhB-431" style="edgeStyle=orthogonalEdgeStyle;rounded=0;orthogonalLoop=1;jettySize=auto;html=1;exitX=0.5;exitY=1;exitDx=0;exitDy=0;" edge="1" parent="1" source="uPHYr8hVOU7tiOj3akhB-435">
          <mxGeometry relative="1" as="geometry">
            <mxPoint x="210" y="-81" as="targetPoint" />
            <mxPoint x="210" y="-101" as="sourcePoint" />
          </mxGeometry>
        </mxCell>
        <mxCell id="uPHYr8hVOU7tiOj3akhB-432" value="No" style="edgeLabel;html=1;align=center;verticalAlign=middle;resizable=0;points=[];" vertex="1" connectable="0" parent="uPHYr8hVOU7tiOj3akhB-431">
          <mxGeometry x="-0.2214" y="2" relative="1" as="geometry">
            <mxPoint as="offset" />
          </mxGeometry>
        </mxCell>
        <mxCell id="uPHYr8hVOU7tiOj3akhB-433" style="edgeStyle=orthogonalEdgeStyle;rounded=0;orthogonalLoop=1;jettySize=auto;html=1;exitX=1;exitY=0.5;exitDx=0;exitDy=0;" edge="1" parent="1" source="uPHYr8hVOU7tiOj3akhB-435">
          <mxGeometry relative="1" as="geometry">
            <mxPoint x="460" y="139" as="targetPoint" />
            <mxPoint x="280" y="-141" as="sourcePoint" />
            <Array as="points">
              <mxPoint x="380" y="-181" />
              <mxPoint x="380" y="109" />
              <mxPoint x="460" y="109" />
            </Array>
          </mxGeometry>
        </mxCell>
        <mxCell id="uPHYr8hVOU7tiOj3akhB-434" value="Yes" style="edgeLabel;html=1;align=center;verticalAlign=middle;resizable=0;points=[];" vertex="1" connectable="0" parent="uPHYr8hVOU7tiOj3akhB-433">
          <mxGeometry x="-0.8111" y="-2" relative="1" as="geometry">
            <mxPoint as="offset" />
          </mxGeometry>
        </mxCell>
        <mxCell id="uPHYr8hVOU7tiOj3akhB-435" value="" style="rhombus;whiteSpace=wrap;html=1;strokeColor=#1462C2;" vertex="1" parent="1">
          <mxGeometry x="140" y="-221" width="140" height="80" as="geometry" />
        </mxCell>
        <mxCell id="uPHYr8hVOU7tiOj3akhB-436" value="Is it a &lt;b&gt;Direct Message&lt;/b&gt;?" style="text;html=1;align=center;verticalAlign=middle;whiteSpace=wrap;rounded=0;" vertex="1" parent="1">
          <mxGeometry x="156" y="-196" width="110" height="30" as="geometry" />
        </mxCell>
        <mxCell id="uPHYr8hVOU7tiOj3akhB-437" value="" style="group;rounded=1;glass=0;" vertex="1" connectable="0" parent="1">
          <mxGeometry x="90" y="-81" width="330" height="60" as="geometry" />
        </mxCell>
        <mxCell id="uPHYr8hVOU7tiOj3akhB-438" style="edgeStyle=orthogonalEdgeStyle;rounded=0;orthogonalLoop=1;jettySize=auto;html=1;" edge="1" parent="uPHYr8hVOU7tiOj3akhB-437" source="uPHYr8hVOU7tiOj3akhB-439">
          <mxGeometry relative="1" as="geometry">
            <mxPoint x="50" y="110" as="targetPoint" />
            <Array as="points">
              <mxPoint x="119" y="90" />
              <mxPoint x="50" y="90" />
              <mxPoint x="50" y="110" />
            </Array>
          </mxGeometry>
        </mxCell>
        <mxCell id="uPHYr8hVOU7tiOj3akhB-439" value="" style="rounded=0;whiteSpace=wrap;html=1;strokeColor=#82b366;fillColor=#00693B;" vertex="1" parent="uPHYr8hVOU7tiOj3akhB-437">
          <mxGeometry y="1.935483870967742" width="237.1875" height="58.064516129032256" as="geometry" />
        </mxCell>
        <mxCell id="uPHYr8hVOU7tiOj3akhB-440" value="What is the users&lt;b&gt; channel notification preference&lt;/b&gt; for when to send desktop notifications?" style="text;html=1;align=center;verticalAlign=middle;whiteSpace=wrap;rounded=0;fontColor=#ffffff;" vertex="1" parent="uPHYr8hVOU7tiOj3akhB-437">
          <mxGeometry x="23.59" y="15.48" width="190" height="29.03" as="geometry" />
        </mxCell>
        <mxCell id="uPHYr8hVOU7tiOj3akhB-441" style="edgeStyle=orthogonalEdgeStyle;rounded=0;orthogonalLoop=1;jettySize=auto;html=1;entryX=0.5;entryY=0;entryDx=0;entryDy=0;" edge="1" parent="uPHYr8hVOU7tiOj3akhB-437" target="uPHYr8hVOU7tiOj3akhB-452">
          <mxGeometry relative="1" as="geometry">
            <Array as="points">
              <mxPoint x="119" y="90" />
              <mxPoint x="367" y="90" />
            </Array>
            <mxPoint x="118.60139860139861" y="70" as="sourcePoint" />
            <mxPoint x="367.00699300699307" y="120" as="targetPoint" />
          </mxGeometry>
        </mxCell>
        <mxCell id="uPHYr8hVOU7tiOj3akhB-442" value="" style="group;rounded=1;glass=0;" vertex="1" connectable="0" parent="1">
          <mxGeometry x="-70" y="29" width="180" height="120" as="geometry" />
        </mxCell>
        <mxCell id="uPHYr8hVOU7tiOj3akhB-443" value="" style="rounded=0;whiteSpace=wrap;html=1;strokeColor=#82b366;fillColor=#00693B;" vertex="1" parent="uPHYr8hVOU7tiOj3akhB-442">
          <mxGeometry y="1.935483870967742" width="100.62500000000001" height="58.064516129032256" as="geometry" />
        </mxCell>
        <mxCell id="uPHYr8hVOU7tiOj3akhB-444" value="Never" style="text;html=1;align=center;verticalAlign=middle;whiteSpace=wrap;rounded=0;fontColor=#ffffff;" vertex="1" parent="uPHYr8hVOU7tiOj3akhB-442">
          <mxGeometry x="10.00787878787879" y="15.48" width="80.6060606060606" height="29.03" as="geometry" />
        </mxCell>
        <mxCell id="uPHYr8hVOU7tiOj3akhB-445" value="" style="group;rounded=1;glass=0;" vertex="1" connectable="0" parent="1">
          <mxGeometry x="90" y="29" width="140" height="60" as="geometry" />
        </mxCell>
        <mxCell id="uPHYr8hVOU7tiOj3akhB-446" value="" style="rounded=0;whiteSpace=wrap;html=1;strokeColor=#82b366;fillColor=#00693B;" vertex="1" parent="uPHYr8hVOU7tiOj3akhB-445">
          <mxGeometry y="1.935483870967742" width="100.625" height="58.064516129032256" as="geometry" />
        </mxCell>
        <mxCell id="uPHYr8hVOU7tiOj3akhB-447" value="Only for Mentions" style="text;html=1;align=center;verticalAlign=middle;whiteSpace=wrap;rounded=0;fontColor=#ffffff;" vertex="1" parent="uPHYr8hVOU7tiOj3akhB-445">
          <mxGeometry x="10.007878787878788" y="15.48" width="80.60606060606061" height="29.03" as="geometry" />
        </mxCell>
        <mxCell id="uPHYr8hVOU7tiOj3akhB-448" value="" style="group;rounded=1;glass=0;" vertex="1" connectable="0" parent="1">
          <mxGeometry x="250" y="29" width="140" height="60" as="geometry" />
        </mxCell>
        <mxCell id="uPHYr8hVOU7tiOj3akhB-449" value="" style="rounded=0;whiteSpace=wrap;html=1;strokeColor=#82b366;fillColor=#00693B;" vertex="1" parent="uPHYr8hVOU7tiOj3akhB-448">
          <mxGeometry y="1.935483870967742" width="100.625" height="58.064516129032256" as="geometry" />
        </mxCell>
        <mxCell id="uPHYr8hVOU7tiOj3akhB-450" value="Global Default" style="text;html=1;align=center;verticalAlign=middle;whiteSpace=wrap;rounded=0;fontColor=#ffffff;" vertex="1" parent="uPHYr8hVOU7tiOj3akhB-448">
          <mxGeometry x="10.007878787878788" y="15.48" width="80.60606060606061" height="29.03" as="geometry" />
        </mxCell>
        <mxCell id="uPHYr8hVOU7tiOj3akhB-451" value="" style="group" vertex="1" connectable="0" parent="1">
          <mxGeometry x="400" y="29" width="130" height="60" as="geometry" />
        </mxCell>
        <mxCell id="uPHYr8hVOU7tiOj3akhB-452" value="" style="rounded=0;whiteSpace=wrap;html=1;strokeColor=#82b366;fillColor=#00693B;" vertex="1" parent="uPHYr8hVOU7tiOj3akhB-451">
          <mxGeometry width="113.75" height="59.995484210865854" as="geometry" />
        </mxCell>
        <mxCell id="uPHYr8hVOU7tiOj3akhB-453" value="" style="group;rounded=1;glass=0;" vertex="1" connectable="0" parent="uPHYr8hVOU7tiOj3akhB-451">
          <mxGeometry x="16.25" y="0.004515789134147086" width="113.75" height="59.995484210865854" as="geometry" />
        </mxCell>
        <mxCell id="uPHYr8hVOU7tiOj3akhB-454" value="For All Activity" style="text;html=1;align=center;verticalAlign=middle;whiteSpace=wrap;rounded=0;fontColor=#ffffff;" vertex="1" parent="uPHYr8hVOU7tiOj3akhB-453">
          <mxGeometry x="8.131401515151515" y="15.478834926403392" width="65.49242424242425" height="29.027815110690597" as="geometry" />
        </mxCell>
        <mxCell id="uPHYr8hVOU7tiOj3akhB-455" style="edgeStyle=orthogonalEdgeStyle;rounded=0;orthogonalLoop=1;jettySize=auto;html=1;entryX=0.5;entryY=0;entryDx=0;entryDy=0;" edge="1" parent="1" source="uPHYr8hVOU7tiOj3akhB-439" target="uPHYr8hVOU7tiOj3akhB-443">
          <mxGeometry relative="1" as="geometry">
            <Array as="points">
              <mxPoint x="209" y="9" />
              <mxPoint x="-20" y="9" />
            </Array>
          </mxGeometry>
        </mxCell>
        <mxCell id="uPHYr8hVOU7tiOj3akhB-456" style="edgeStyle=orthogonalEdgeStyle;rounded=0;orthogonalLoop=1;jettySize=auto;html=1;entryX=0.5;entryY=0;entryDx=0;entryDy=0;" edge="1" parent="1" target="uPHYr8hVOU7tiOj3akhB-419">
          <mxGeometry relative="1" as="geometry">
            <mxPoint x="212.18" y="-891" as="sourcePoint" />
            <Array as="points">
              <mxPoint x="212.18" y="-871" />
              <mxPoint x="212.18" y="-871" />
            </Array>
          </mxGeometry>
        </mxCell>
        <mxCell id="uPHYr8hVOU7tiOj3akhB-457" value="" style="group" vertex="1" connectable="0" parent="1">
          <mxGeometry x="920" y="-757" width="140" height="80" as="geometry" />
        </mxCell>
        <mxCell id="uPHYr8hVOU7tiOj3akhB-458" value="" style="rhombus;whiteSpace=wrap;html=1;strokeColor=#3caade;" vertex="1" parent="uPHYr8hVOU7tiOj3akhB-457">
          <mxGeometry width="140" height="80" as="geometry" />
        </mxCell>
        <mxCell id="uPHYr8hVOU7tiOj3akhB-459" value="&lt;b&gt;User State&lt;/b&gt;" style="text;html=1;align=center;verticalAlign=middle;whiteSpace=wrap;rounded=0;" vertex="1" parent="uPHYr8hVOU7tiOj3akhB-457">
          <mxGeometry x="16" y="25" width="110" height="30" as="geometry" />
        </mxCell>
        <mxCell id="uPHYr8hVOU7tiOj3akhB-460" value="" style="group" vertex="1" connectable="0" parent="1">
          <mxGeometry x="1090" y="-757" width="140" height="80" as="geometry" />
        </mxCell>
        <mxCell id="uPHYr8hVOU7tiOj3akhB-461" value="" style="rhombus;whiteSpace=wrap;html=1;strokeColor=#1462c2;" vertex="1" parent="uPHYr8hVOU7tiOj3akhB-460">
          <mxGeometry width="140" height="80" as="geometry" />
        </mxCell>
        <mxCell id="uPHYr8hVOU7tiOj3akhB-462" value="&lt;b&gt;Message State&lt;/b&gt;" style="text;html=1;align=center;verticalAlign=middle;whiteSpace=wrap;rounded=0;" vertex="1" parent="uPHYr8hVOU7tiOj3akhB-460">
          <mxGeometry x="16" y="25" width="110" height="30" as="geometry" />
        </mxCell>
        <mxCell id="uPHYr8hVOU7tiOj3akhB-463" value="" style="group" vertex="1" connectable="0" parent="1">
          <mxGeometry x="1060" y="749" width="140" height="100" as="geometry" />
        </mxCell>
        <mxCell id="uPHYr8hVOU7tiOj3akhB-464" value="" style="rhombus;whiteSpace=wrap;html=1;strokeColor=#3CAADE;" vertex="1" parent="uPHYr8hVOU7tiOj3akhB-463">
          <mxGeometry width="140" height="100" as="geometry" />
        </mxCell>
        <mxCell id="uPHYr8hVOU7tiOj3akhB-465" value="Did the user &lt;b&gt;participate in the thread&lt;/b&gt;?" style="text;html=1;align=center;verticalAlign=middle;whiteSpace=wrap;rounded=0;" vertex="1" parent="uPHYr8hVOU7tiOj3akhB-463">
          <mxGeometry x="15" y="31.25" width="110" height="37.5" as="geometry" />
        </mxCell>
        <mxCell id="uPHYr8hVOU7tiOj3akhB-466" value="" style="group" vertex="1" connectable="0" parent="1">
          <mxGeometry x="1260.31" y="749" width="140" height="100" as="geometry" />
        </mxCell>
        <mxCell id="uPHYr8hVOU7tiOj3akhB-614" style="edgeStyle=orthogonalEdgeStyle;rounded=0;orthogonalLoop=1;jettySize=auto;html=1;" edge="1" parent="uPHYr8hVOU7tiOj3akhB-466" source="uPHYr8hVOU7tiOj3akhB-467">
          <mxGeometry relative="1" as="geometry">
            <mxPoint x="219.69000000000005" y="171" as="targetPoint" />
          </mxGeometry>
        </mxCell>
        <mxCell id="uPHYr8hVOU7tiOj3akhB-615" value="Yes" style="edgeLabel;html=1;align=center;verticalAlign=middle;resizable=0;points=[];" vertex="1" connectable="0" parent="uPHYr8hVOU7tiOj3akhB-614">
          <mxGeometry x="-0.5677" relative="1" as="geometry">
            <mxPoint x="-24" as="offset" />
          </mxGeometry>
        </mxCell>
        <mxCell id="uPHYr8hVOU7tiOj3akhB-467" value="" style="rhombus;whiteSpace=wrap;html=1;strokeColor=#3CAADE;" vertex="1" parent="uPHYr8hVOU7tiOj3akhB-466">
          <mxGeometry width="140" height="100" as="geometry" />
        </mxCell>
        <mxCell id="uPHYr8hVOU7tiOj3akhB-468" value="Did the user &lt;b&gt;start the thread&lt;/b&gt;?" style="text;html=1;align=center;verticalAlign=middle;whiteSpace=wrap;rounded=0;" vertex="1" parent="uPHYr8hVOU7tiOj3akhB-466">
          <mxGeometry x="23" y="31.25" width="94" height="37.5" as="geometry" />
        </mxCell>
        <mxCell id="uPHYr8hVOU7tiOj3akhB-469" value="" style="group" vertex="1" connectable="0" parent="1">
          <mxGeometry x="690" y="519" width="140" height="120" as="geometry" />
        </mxCell>
        <mxCell id="uPHYr8hVOU7tiOj3akhB-470" value="" style="rhombus;whiteSpace=wrap;html=1;strokeColor=#1462C2;" vertex="1" parent="uPHYr8hVOU7tiOj3akhB-469">
          <mxGeometry width="140" height="120" as="geometry" />
        </mxCell>
        <mxCell id="uPHYr8hVOU7tiOj3akhB-471" style="edgeStyle=orthogonalEdgeStyle;rounded=0;orthogonalLoop=1;jettySize=auto;html=1;" edge="1" parent="uPHYr8hVOU7tiOj3akhB-469">
          <mxGeometry relative="1" as="geometry">
            <mxPoint x="320" y="60" as="targetPoint" />
            <mxPoint x="140" y="60" as="sourcePoint" />
          </mxGeometry>
        </mxCell>
        <mxCell id="uPHYr8hVOU7tiOj3akhB-472" value="Yes" style="edgeLabel;html=1;align=center;verticalAlign=middle;resizable=0;points=[];" vertex="1" connectable="0" parent="uPHYr8hVOU7tiOj3akhB-471">
          <mxGeometry x="-0.3533" relative="1" as="geometry">
            <mxPoint as="offset" />
          </mxGeometry>
        </mxCell>
        <mxCell id="uPHYr8hVOU7tiOj3akhB-473" value="Is the message in a &lt;b&gt;thread&lt;/b&gt;?" style="text;html=1;align=center;verticalAlign=middle;whiteSpace=wrap;rounded=0;" vertex="1" parent="uPHYr8hVOU7tiOj3akhB-469">
          <mxGeometry x="33" y="37.5" width="74" height="45" as="geometry" />
        </mxCell>
        <mxCell id="uPHYr8hVOU7tiOj3akhB-474" value="" style="group" vertex="1" connectable="0" parent="1">
          <mxGeometry x="470" y="519" width="140" height="100" as="geometry" />
        </mxCell>
        <mxCell id="uPHYr8hVOU7tiOj3akhB-475" value="" style="rhombus;whiteSpace=wrap;html=1;strokeColor=#1462C2;" vertex="1" parent="uPHYr8hVOU7tiOj3akhB-474">
          <mxGeometry width="140" height="120" as="geometry" />
        </mxCell>
        <mxCell id="uPHYr8hVOU7tiOj3akhB-476" value="Does the message contain other &lt;b&gt;words that trigger mentions&lt;/b&gt;?" style="text;html=1;align=center;verticalAlign=middle;whiteSpace=wrap;rounded=0;" vertex="1" parent="uPHYr8hVOU7tiOj3akhB-474">
          <mxGeometry x="23" y="40.25" width="94" height="37.5" as="geometry" />
        </mxCell>
        <mxCell id="uPHYr8hVOU7tiOj3akhB-477" value="" style="group" vertex="1" connectable="0" parent="1">
          <mxGeometry x="280" y="519" width="140" height="120" as="geometry" />
        </mxCell>
        <mxCell id="uPHYr8hVOU7tiOj3akhB-478" value="" style="rhombus;whiteSpace=wrap;html=1;strokeColor=#1462C2;" vertex="1" parent="uPHYr8hVOU7tiOj3akhB-477">
          <mxGeometry width="140" height="120" as="geometry" />
        </mxCell>
        <mxCell id="uPHYr8hVOU7tiOj3akhB-479" value="Does the message contain &lt;b&gt;@here&lt;/b&gt;?" style="text;html=1;align=center;verticalAlign=middle;whiteSpace=wrap;rounded=0;" vertex="1" parent="uPHYr8hVOU7tiOj3akhB-477">
          <mxGeometry x="23" y="37.5" width="94" height="45" as="geometry" />
        </mxCell>
        <mxCell id="uPHYr8hVOU7tiOj3akhB-480" value="" style="group" vertex="1" connectable="0" parent="1">
          <mxGeometry x="70" y="519" width="140" height="120" as="geometry" />
        </mxCell>
        <mxCell id="uPHYr8hVOU7tiOj3akhB-481" style="edgeStyle=orthogonalEdgeStyle;rounded=0;orthogonalLoop=1;jettySize=auto;html=1;" edge="1" parent="uPHYr8hVOU7tiOj3akhB-480" source="uPHYr8hVOU7tiOj3akhB-483">
          <mxGeometry relative="1" as="geometry">
            <mxPoint x="209.99999999999977" y="60.000000000000014" as="targetPoint" />
          </mxGeometry>
        </mxCell>
        <mxCell id="uPHYr8hVOU7tiOj3akhB-482" value="No" style="edgeLabel;html=1;align=center;verticalAlign=middle;resizable=0;points=[];" vertex="1" connectable="0" parent="uPHYr8hVOU7tiOj3akhB-481">
          <mxGeometry x="-0.1966" y="1" relative="1" as="geometry">
            <mxPoint as="offset" />
          </mxGeometry>
        </mxCell>
        <mxCell id="uPHYr8hVOU7tiOj3akhB-483" value="" style="rhombus;whiteSpace=wrap;html=1;strokeColor=#1462C2;" vertex="1" parent="uPHYr8hVOU7tiOj3akhB-480">
          <mxGeometry width="140" height="120.00000000000003" as="geometry" />
        </mxCell>
        <mxCell id="uPHYr8hVOU7tiOj3akhB-484" value="Does the messgae contain &lt;b&gt;@channel or @all&lt;/b&gt;?" style="text;html=1;align=center;verticalAlign=middle;whiteSpace=wrap;rounded=0;" vertex="1" parent="uPHYr8hVOU7tiOj3akhB-480">
          <mxGeometry x="23" y="37.5" width="94" height="45" as="geometry" />
        </mxCell>
        <mxCell id="uPHYr8hVOU7tiOj3akhB-485" value="" style="group" vertex="1" connectable="0" parent="1">
          <mxGeometry x="395" y="359" width="140" height="80" as="geometry" />
        </mxCell>
        <mxCell id="uPHYr8hVOU7tiOj3akhB-486" value="" style="rhombus;whiteSpace=wrap;html=1;strokeColor=#1462C2;" vertex="1" parent="uPHYr8hVOU7tiOj3akhB-485">
          <mxGeometry width="140" height="80" as="geometry" />
        </mxCell>
        <mxCell id="uPHYr8hVOU7tiOj3akhB-487" value="Is it a &lt;b&gt;Direct Message&lt;/b&gt;?" style="text;html=1;align=center;verticalAlign=middle;whiteSpace=wrap;rounded=0;" vertex="1" parent="uPHYr8hVOU7tiOj3akhB-485">
          <mxGeometry x="16" y="25" width="110" height="30" as="geometry" />
        </mxCell>
        <mxCell id="uPHYr8hVOU7tiOj3akhB-488" value="" style="group" vertex="1" connectable="0" parent="1">
          <mxGeometry x="250" y="139" width="460" height="170" as="geometry" />
        </mxCell>
        <mxCell id="uPHYr8hVOU7tiOj3akhB-489" value="" style="group;rounded=1;glass=0;" vertex="1" connectable="0" parent="uPHYr8hVOU7tiOj3akhB-488">
          <mxGeometry x="90" width="330" height="60" as="geometry" />
        </mxCell>
        <mxCell id="uPHYr8hVOU7tiOj3akhB-490" style="edgeStyle=orthogonalEdgeStyle;rounded=0;orthogonalLoop=1;jettySize=auto;html=1;" edge="1" parent="uPHYr8hVOU7tiOj3akhB-489" source="uPHYr8hVOU7tiOj3akhB-491">
          <mxGeometry relative="1" as="geometry">
            <mxPoint x="119" y="110" as="targetPoint" />
          </mxGeometry>
        </mxCell>
        <mxCell id="uPHYr8hVOU7tiOj3akhB-491" value="" style="rounded=0;whiteSpace=wrap;html=1;strokeColor=#82b366;fillColor=#00693B;" vertex="1" parent="uPHYr8hVOU7tiOj3akhB-489">
          <mxGeometry y="1.935483870967742" width="237.1875" height="58.064516129032256" as="geometry" />
        </mxCell>
        <mxCell id="uPHYr8hVOU7tiOj3akhB-492" value="What is the users&lt;b&gt; account settings notification &lt;/b&gt;preference for when to send desktop notifications?" style="text;html=1;align=center;verticalAlign=middle;whiteSpace=wrap;rounded=0;fontColor=#ffffff;" vertex="1" parent="uPHYr8hVOU7tiOj3akhB-489">
          <mxGeometry x="23.59" y="15.48" width="196.41" height="29.03" as="geometry" />
        </mxCell>
        <mxCell id="uPHYr8hVOU7tiOj3akhB-493" value="" style="group;rounded=1;glass=0;" vertex="1" connectable="0" parent="uPHYr8hVOU7tiOj3akhB-488">
          <mxGeometry y="110" width="140" height="60" as="geometry" />
        </mxCell>
        <mxCell id="uPHYr8hVOU7tiOj3akhB-494" value="" style="group" vertex="1" connectable="0" parent="uPHYr8hVOU7tiOj3akhB-493">
          <mxGeometry y="1.935483870967742" width="100.625" height="58.064516129032256" as="geometry" />
        </mxCell>
        <mxCell id="uPHYr8hVOU7tiOj3akhB-495" value="" style="rounded=0;whiteSpace=wrap;html=1;strokeColor=#82b366;fillColor=#00693B;" vertex="1" parent="uPHYr8hVOU7tiOj3akhB-494">
          <mxGeometry width="100.625" height="58.064516129032256" as="geometry" />
        </mxCell>
        <mxCell id="uPHYr8hVOU7tiOj3akhB-496" style="edgeStyle=orthogonalEdgeStyle;rounded=0;orthogonalLoop=1;jettySize=auto;html=1;" edge="1" parent="uPHYr8hVOU7tiOj3akhB-494">
          <mxGeometry relative="1" as="geometry">
            <mxPoint x="-440" y="669.3978291173134" as="targetPoint" />
            <mxPoint y="28.064516129032256" as="sourcePoint" />
          </mxGeometry>
        </mxCell>
        <mxCell id="uPHYr8hVOU7tiOj3akhB-497" value="Never" style="text;html=1;align=center;verticalAlign=middle;whiteSpace=wrap;rounded=0;fontColor=#ffffff;" vertex="1" parent="uPHYr8hVOU7tiOj3akhB-494">
          <mxGeometry x="10.007878787878788" y="13.544516129032258" width="80.60606060606061" height="29.03" as="geometry" />
        </mxCell>
        <mxCell id="uPHYr8hVOU7tiOj3akhB-498" value="" style="group;rounded=1;glass=0;" vertex="1" connectable="0" parent="uPHYr8hVOU7tiOj3akhB-488">
          <mxGeometry x="130" y="110" width="170" height="60" as="geometry" />
        </mxCell>
        <mxCell id="uPHYr8hVOU7tiOj3akhB-499" value="" style="group" vertex="1" connectable="0" parent="uPHYr8hVOU7tiOj3akhB-498">
          <mxGeometry x="15" y="0.97" width="140" height="58.06" as="geometry" />
        </mxCell>
        <mxCell id="uPHYr8hVOU7tiOj3akhB-500" value="" style="rounded=0;whiteSpace=wrap;html=1;strokeColor=#82b366;fillColor=#00693B;" vertex="1" parent="uPHYr8hVOU7tiOj3akhB-499">
          <mxGeometry width="140" height="58.06" as="geometry" />
        </mxCell>
        <mxCell id="uPHYr8hVOU7tiOj3akhB-501" value="Only for Mentions and Direct Messages" style="text;html=1;align=center;verticalAlign=middle;whiteSpace=wrap;rounded=0;fontColor=#ffffff;" vertex="1" parent="uPHYr8hVOU7tiOj3akhB-499">
          <mxGeometry x="6.079999999999998" y="14.509999999999998" width="127.85" height="29.03" as="geometry" />
        </mxCell>
        <mxCell id="uPHYr8hVOU7tiOj3akhB-502" value="" style="group;rounded=1;glass=0;" vertex="1" connectable="0" parent="uPHYr8hVOU7tiOj3akhB-488">
          <mxGeometry x="320" y="110" width="140" height="60" as="geometry" />
        </mxCell>
        <mxCell id="uPHYr8hVOU7tiOj3akhB-503" value="" style="group" vertex="1" connectable="0" parent="uPHYr8hVOU7tiOj3akhB-502">
          <mxGeometry y="1.935483870967742" width="100.625" height="58.064516129032256" as="geometry" />
        </mxCell>
        <mxCell id="uPHYr8hVOU7tiOj3akhB-504" value="" style="rounded=0;whiteSpace=wrap;html=1;strokeColor=#82b366;fillColor=#00693B;" vertex="1" parent="uPHYr8hVOU7tiOj3akhB-503">
          <mxGeometry width="100.625" height="58.064516129032256" as="geometry" />
        </mxCell>
        <mxCell id="uPHYr8hVOU7tiOj3akhB-505" value="For All Activity" style="text;html=1;align=center;verticalAlign=middle;whiteSpace=wrap;rounded=0;fontColor=#ffffff;" vertex="1" parent="uPHYr8hVOU7tiOj3akhB-503">
          <mxGeometry x="15.32" y="14.52" width="69.99" height="29.03" as="geometry" />
        </mxCell>
        <mxCell id="uPHYr8hVOU7tiOj3akhB-506" style="edgeStyle=orthogonalEdgeStyle;rounded=0;orthogonalLoop=1;jettySize=auto;html=1;entryX=0.475;entryY=0.005;entryDx=0;entryDy=0;entryPerimeter=0;" edge="1" parent="uPHYr8hVOU7tiOj3akhB-488" source="uPHYr8hVOU7tiOj3akhB-491" target="uPHYr8hVOU7tiOj3akhB-495">
          <mxGeometry relative="1" as="geometry">
            <mxPoint x="120" y="110" as="targetPoint" />
          </mxGeometry>
        </mxCell>
        <mxCell id="uPHYr8hVOU7tiOj3akhB-507" style="edgeStyle=orthogonalEdgeStyle;rounded=0;orthogonalLoop=1;jettySize=auto;html=1;entryX=0.5;entryY=0;entryDx=0;entryDy=0;" edge="1" parent="uPHYr8hVOU7tiOj3akhB-488" source="uPHYr8hVOU7tiOj3akhB-491" target="uPHYr8hVOU7tiOj3akhB-504">
          <mxGeometry relative="1" as="geometry">
            <mxPoint x="300" y="110" as="targetPoint" />
          </mxGeometry>
        </mxCell>
        <mxCell id="uPHYr8hVOU7tiOj3akhB-508" value="" style="group" vertex="1" connectable="0" parent="1">
          <mxGeometry x="70" y="344" width="150" height="110" as="geometry" />
        </mxCell>
        <mxCell id="uPHYr8hVOU7tiOj3akhB-509" value="" style="rhombus;whiteSpace=wrap;html=1;strokeColor=#047D7E;" vertex="1" parent="uPHYr8hVOU7tiOj3akhB-508">
          <mxGeometry x="-4.081632653061225" y="-10.999999999999998" width="150.00000000000003" height="132.00000000000003" as="geometry" />
        </mxCell>
        <mxCell id="uPHYr8hVOU7tiOj3akhB-510" value="&lt;b&gt;Ignore&lt;/b&gt; mentions for &lt;b&gt;@channel, @here and @all&lt;/b&gt; in this channel?" style="text;html=1;align=center;verticalAlign=middle;whiteSpace=wrap;rounded=0;" vertex="1" parent="uPHYr8hVOU7tiOj3akhB-508">
          <mxGeometry x="28.989795918367346" y="34.375" width="83.85714285714288" height="41.25" as="geometry" />
        </mxCell>
        <mxCell id="uPHYr8hVOU7tiOj3akhB-511" value="" style="group" vertex="1" connectable="0" parent="1">
          <mxGeometry x="920" y="539" width="460" height="170" as="geometry" />
        </mxCell>
        <mxCell id="uPHYr8hVOU7tiOj3akhB-512" value="" style="group;rounded=1;glass=0;" vertex="1" connectable="0" parent="uPHYr8hVOU7tiOj3akhB-511">
          <mxGeometry x="90" y="10" width="330" height="60" as="geometry" />
        </mxCell>
        <mxCell id="uPHYr8hVOU7tiOj3akhB-513" style="edgeStyle=orthogonalEdgeStyle;rounded=0;orthogonalLoop=1;jettySize=auto;html=1;" edge="1" parent="uPHYr8hVOU7tiOj3akhB-512" source="uPHYr8hVOU7tiOj3akhB-514">
          <mxGeometry relative="1" as="geometry">
            <mxPoint x="119" y="110" as="targetPoint" />
          </mxGeometry>
        </mxCell>
        <mxCell id="uPHYr8hVOU7tiOj3akhB-514" value="" style="rounded=0;whiteSpace=wrap;html=1;strokeColor=#82b366;fillColor=#00693B;" vertex="1" parent="uPHYr8hVOU7tiOj3akhB-512">
          <mxGeometry y="1.935483870967742" width="237.1875" height="58.064516129032256" as="geometry" />
        </mxCell>
        <mxCell id="uPHYr8hVOU7tiOj3akhB-515" value="What is the users&amp;nbsp;notification&lt;b&gt; &lt;/b&gt;preference for &lt;b&gt;Reply Notifications&lt;/b&gt;?" style="text;html=1;align=center;verticalAlign=middle;whiteSpace=wrap;rounded=0;fontColor=#ffffff;" vertex="1" parent="uPHYr8hVOU7tiOj3akhB-512">
          <mxGeometry x="23.59" y="15.48" width="196.41" height="29.03" as="geometry" />
        </mxCell>
        <mxCell id="uPHYr8hVOU7tiOj3akhB-516" value="" style="group;rounded=1;glass=0;" vertex="1" connectable="0" parent="uPHYr8hVOU7tiOj3akhB-511">
          <mxGeometry y="110" width="140" height="60" as="geometry" />
        </mxCell>
        <mxCell id="uPHYr8hVOU7tiOj3akhB-517" value="" style="group" vertex="1" connectable="0" parent="uPHYr8hVOU7tiOj3akhB-516">
          <mxGeometry x="-30" y="1.935483870967742" width="100.625" height="58.064516129032256" as="geometry" />
        </mxCell>
        <mxCell id="uPHYr8hVOU7tiOj3akhB-518" style="edgeStyle=orthogonalEdgeStyle;rounded=0;orthogonalLoop=1;jettySize=auto;html=1;" edge="1" parent="uPHYr8hVOU7tiOj3akhB-517" source="uPHYr8hVOU7tiOj3akhB-519">
          <mxGeometry relative="1" as="geometry">
            <mxPoint x="-990" y="298.06451612903226" as="targetPoint" />
            <Array as="points">
              <mxPoint x="50" y="298" />
            </Array>
          </mxGeometry>
        </mxCell>
        <mxCell id="uPHYr8hVOU7tiOj3akhB-519" value="" style="rounded=0;whiteSpace=wrap;html=1;strokeColor=#82b366;fillColor=#00693B;" vertex="1" parent="uPHYr8hVOU7tiOj3akhB-517">
          <mxGeometry width="100.625" height="58.064516129032256" as="geometry" />
        </mxCell>
        <mxCell id="uPHYr8hVOU7tiOj3akhB-520" value="Only if mentioned" style="text;html=1;align=center;verticalAlign=middle;whiteSpace=wrap;rounded=0;fontColor=#ffffff;" vertex="1" parent="uPHYr8hVOU7tiOj3akhB-517">
          <mxGeometry x="10.007878787878788" y="13.544516129032258" width="80.60606060606061" height="29.03" as="geometry" />
        </mxCell>
        <mxCell id="uPHYr8hVOU7tiOj3akhB-521" value="" style="group;rounded=1;glass=0;" vertex="1" connectable="0" parent="uPHYr8hVOU7tiOj3akhB-511">
          <mxGeometry x="130" y="110" width="170" height="60" as="geometry" />
        </mxCell>
        <mxCell id="uPHYr8hVOU7tiOj3akhB-522" value="" style="group" vertex="1" connectable="0" parent="uPHYr8hVOU7tiOj3akhB-521">
          <mxGeometry x="15" y="0.97" width="140" height="58.06" as="geometry" />
        </mxCell>
        <mxCell id="uPHYr8hVOU7tiOj3akhB-523" value="" style="rounded=0;whiteSpace=wrap;html=1;strokeColor=#82b366;fillColor=#00693B;" vertex="1" parent="uPHYr8hVOU7tiOj3akhB-522">
          <mxGeometry width="140" height="58.06" as="geometry" />
        </mxCell>
        <mxCell id="uPHYr8hVOU7tiOj3akhB-524" value="Threads the user starts or participates in" style="text;html=1;align=center;verticalAlign=middle;whiteSpace=wrap;rounded=0;fontColor=#ffffff;" vertex="1" parent="uPHYr8hVOU7tiOj3akhB-522">
          <mxGeometry x="6.079999999999998" y="14.509999999999998" width="127.85" height="29.03" as="geometry" />
        </mxCell>
        <mxCell id="uPHYr8hVOU7tiOj3akhB-525" value="" style="group;rounded=1;glass=0;" vertex="1" connectable="0" parent="uPHYr8hVOU7tiOj3akhB-511">
          <mxGeometry x="360" y="110" width="140" height="60" as="geometry" />
        </mxCell>
        <mxCell id="uPHYr8hVOU7tiOj3akhB-526" value="" style="group" vertex="1" connectable="0" parent="uPHYr8hVOU7tiOj3akhB-525">
          <mxGeometry y="1.935483870967742" width="100.625" height="58.064516129032256" as="geometry" />
        </mxCell>
        <mxCell id="uPHYr8hVOU7tiOj3akhB-527" value="" style="rounded=0;whiteSpace=wrap;html=1;strokeColor=#82b366;fillColor=#00693B;" vertex="1" parent="uPHYr8hVOU7tiOj3akhB-526">
          <mxGeometry width="100.625" height="58.064516129032256" as="geometry" />
        </mxCell>
        <mxCell id="uPHYr8hVOU7tiOj3akhB-528" value="Threads the user starts" style="text;html=1;align=center;verticalAlign=middle;whiteSpace=wrap;rounded=0;fontColor=#ffffff;" vertex="1" parent="uPHYr8hVOU7tiOj3akhB-526">
          <mxGeometry x="10.007878787878788" y="13.544516129032258" width="80.60606060606061" height="29.03" as="geometry" />
        </mxCell>
        <mxCell id="uPHYr8hVOU7tiOj3akhB-529" style="edgeStyle=orthogonalEdgeStyle;rounded=0;orthogonalLoop=1;jettySize=auto;html=1;entryX=0.475;entryY=0.005;entryDx=0;entryDy=0;entryPerimeter=0;" edge="1" parent="uPHYr8hVOU7tiOj3akhB-511" source="uPHYr8hVOU7tiOj3akhB-514" target="uPHYr8hVOU7tiOj3akhB-519">
          <mxGeometry relative="1" as="geometry">
            <mxPoint x="120" y="110" as="targetPoint" />
            <Array as="points">
              <mxPoint x="209" y="80" />
              <mxPoint x="18" y="80" />
            </Array>
          </mxGeometry>
        </mxCell>
        <mxCell id="uPHYr8hVOU7tiOj3akhB-530" style="edgeStyle=orthogonalEdgeStyle;rounded=0;orthogonalLoop=1;jettySize=auto;html=1;entryX=0.5;entryY=0;entryDx=0;entryDy=0;" edge="1" parent="uPHYr8hVOU7tiOj3akhB-511" source="uPHYr8hVOU7tiOj3akhB-514" target="uPHYr8hVOU7tiOj3akhB-527">
          <mxGeometry relative="1" as="geometry">
            <mxPoint x="300" y="110" as="targetPoint" />
            <Array as="points">
              <mxPoint x="209" y="80" />
              <mxPoint x="410" y="80" />
            </Array>
          </mxGeometry>
        </mxCell>
        <mxCell id="uPHYr8hVOU7tiOj3akhB-531" value="" style="group" vertex="1" connectable="0" parent="1">
          <mxGeometry x="280" y="699" width="140" height="100" as="geometry" />
        </mxCell>
        <mxCell id="uPHYr8hVOU7tiOj3akhB-532" style="edgeStyle=orthogonalEdgeStyle;rounded=0;orthogonalLoop=1;jettySize=auto;html=1;" edge="1" parent="uPHYr8hVOU7tiOj3akhB-531" source="uPHYr8hVOU7tiOj3akhB-534">
          <mxGeometry relative="1" as="geometry">
            <mxPoint x="190" y="-120" as="targetPoint" />
            <Array as="points">
              <mxPoint x="170" y="50" />
              <mxPoint x="170" y="-120" />
              <mxPoint x="190" y="-120" />
            </Array>
          </mxGeometry>
        </mxCell>
        <mxCell id="uPHYr8hVOU7tiOj3akhB-533" value="No" style="edgeLabel;html=1;align=center;verticalAlign=middle;resizable=0;points=[];" vertex="1" connectable="0" parent="uPHYr8hVOU7tiOj3akhB-532">
          <mxGeometry x="-0.8635" y="-1" relative="1" as="geometry">
            <mxPoint as="offset" />
          </mxGeometry>
        </mxCell>
        <mxCell id="uPHYr8hVOU7tiOj3akhB-534" value="" style="rhombus;whiteSpace=wrap;html=1;strokeColor=#3CAADE;" vertex="1" parent="uPHYr8hVOU7tiOj3akhB-531">
          <mxGeometry width="140" height="100" as="geometry" />
        </mxCell>
        <mxCell id="uPHYr8hVOU7tiOj3akhB-535" value="Is the user status &lt;b&gt;online or away&lt;/b&gt;?" style="text;html=1;align=center;verticalAlign=middle;whiteSpace=wrap;rounded=0;" vertex="1" parent="uPHYr8hVOU7tiOj3akhB-531">
          <mxGeometry x="28" y="31.25" width="84" height="37.5" as="geometry" />
        </mxCell>
        <mxCell id="uPHYr8hVOU7tiOj3akhB-536" value="" style="group;rounded=1;glass=0;fillColor=#ffffff;strokeColor=#ffffff;" vertex="1" connectable="0" parent="1">
          <mxGeometry x="1391" y="917" width="180" height="62" as="geometry" />
        </mxCell>
        <mxCell id="uPHYr8hVOU7tiOj3akhB-537" value="" style="rounded=0;whiteSpace=wrap;html=1;fontColor=#858585;strokeColor=#666666;fillColor=#327700;" vertex="1" parent="uPHYr8hVOU7tiOj3akhB-536">
          <mxGeometry y="2" width="180" height="60" as="geometry" />
        </mxCell>
        <mxCell id="uPHYr8hVOU7tiOj3akhB-538" value="Trigger a push notification" style="text;html=1;align=center;verticalAlign=middle;whiteSpace=wrap;rounded=0;fontColor=#FFFFFF;fontStyle=1" vertex="1" parent="uPHYr8hVOU7tiOj3akhB-536">
          <mxGeometry x="34.690000000000005" y="17" width="110.63" height="30" as="geometry" />
        </mxCell>
        <mxCell id="uPHYr8hVOU7tiOj3akhB-539" value="" style="group;rounded=1;glass=0;fillColor=#ffffff;strokeColor=#ffffff;" vertex="1" connectable="0" parent="1">
          <mxGeometry x="-279" y="917" width="180" height="62" as="geometry" />
        </mxCell>
        <mxCell id="uPHYr8hVOU7tiOj3akhB-540" value="" style="rounded=0;whiteSpace=wrap;html=1;fontColor=#858585;strokeColor=#666666;fillColor=#ca2936;" vertex="1" parent="uPHYr8hVOU7tiOj3akhB-539">
          <mxGeometry y="2" width="180" height="60" as="geometry" />
        </mxCell>
        <mxCell id="uPHYr8hVOU7tiOj3akhB-541" value="Do not trigger a push notification" style="text;html=1;align=center;verticalAlign=middle;whiteSpace=wrap;rounded=0;fontColor=#FFFFFF;fontStyle=1" vertex="1" parent="uPHYr8hVOU7tiOj3akhB-539">
          <mxGeometry x="27.34" y="17" width="122.66" height="30" as="geometry" />
        </mxCell>
        <mxCell id="uPHYr8hVOU7tiOj3akhB-542" style="edgeStyle=orthogonalEdgeStyle;rounded=0;orthogonalLoop=1;jettySize=auto;html=1;exitX=0;exitY=0.5;exitDx=0;exitDy=0;entryX=0.5;entryY=0;entryDx=0;entryDy=0;" edge="1" parent="1" source="uPHYr8hVOU7tiOj3akhB-419" target="uPHYr8hVOU7tiOj3akhB-540">
          <mxGeometry relative="1" as="geometry">
            <mxPoint x="-190" y="649" as="targetPoint" />
          </mxGeometry>
        </mxCell>
        <mxCell id="uPHYr8hVOU7tiOj3akhB-543" value="Yes" style="edgeLabel;html=1;align=center;verticalAlign=middle;resizable=0;points=[];" vertex="1" connectable="0" parent="uPHYr8hVOU7tiOj3akhB-542">
          <mxGeometry x="-0.9349" relative="1" as="geometry">
            <mxPoint as="offset" />
          </mxGeometry>
        </mxCell>
        <mxCell id="uPHYr8hVOU7tiOj3akhB-544" style="edgeStyle=orthogonalEdgeStyle;rounded=0;orthogonalLoop=1;jettySize=auto;html=1;exitX=0.5;exitY=1;exitDx=0;exitDy=0;" edge="1" parent="1" source="uPHYr8hVOU7tiOj3akhB-449">
          <mxGeometry relative="1" as="geometry">
            <mxPoint x="460" y="139" as="targetPoint" />
            <mxPoint x="290.00399999999985" y="79.00000000000011" as="sourcePoint" />
            <Array as="points">
              <mxPoint x="300" y="109" />
              <mxPoint x="460" y="109" />
            </Array>
          </mxGeometry>
        </mxCell>
        <mxCell id="uPHYr8hVOU7tiOj3akhB-545" style="edgeStyle=orthogonalEdgeStyle;rounded=0;orthogonalLoop=1;jettySize=auto;html=1;entryX=0.5;entryY=0;entryDx=0;entryDy=0;" edge="1" parent="1" target="uPHYr8hVOU7tiOj3akhB-540">
          <mxGeometry relative="1" as="geometry">
            <mxPoint x="-70" y="59" as="sourcePoint" />
          </mxGeometry>
        </mxCell>
        <mxCell id="uPHYr8hVOU7tiOj3akhB-546" style="edgeStyle=orthogonalEdgeStyle;rounded=0;orthogonalLoop=1;jettySize=auto;html=1;entryX=0.5;entryY=0;entryDx=0;entryDy=0;" edge="1" parent="1" source="uPHYr8hVOU7tiOj3akhB-446" target="uPHYr8hVOU7tiOj3akhB-509">
          <mxGeometry relative="1" as="geometry" />
        </mxCell>
        <mxCell id="uPHYr8hVOU7tiOj3akhB-547" style="edgeStyle=orthogonalEdgeStyle;rounded=0;orthogonalLoop=1;jettySize=auto;html=1;entryX=1;entryY=0.5;entryDx=0;entryDy=0;" edge="1" parent="1" source="uPHYr8hVOU7tiOj3akhB-486" target="uPHYr8hVOU7tiOj3akhB-509">
          <mxGeometry relative="1" as="geometry" />
        </mxCell>
        <mxCell id="uPHYr8hVOU7tiOj3akhB-548" value="No&amp;nbsp;" style="edgeLabel;html=1;align=center;verticalAlign=middle;resizable=0;points=[];" vertex="1" connectable="0" parent="uPHYr8hVOU7tiOj3akhB-547">
          <mxGeometry x="-0.5075" y="-1" relative="1" as="geometry">
            <mxPoint as="offset" />
          </mxGeometry>
        </mxCell>
        <mxCell id="uPHYr8hVOU7tiOj3akhB-549" style="edgeStyle=orthogonalEdgeStyle;rounded=0;orthogonalLoop=1;jettySize=auto;html=1;entryX=0.5;entryY=0;entryDx=0;entryDy=0;" edge="1" parent="1" source="uPHYr8hVOU7tiOj3akhB-509" target="uPHYr8hVOU7tiOj3akhB-483">
          <mxGeometry relative="1" as="geometry" />
        </mxCell>
        <mxCell id="uPHYr8hVOU7tiOj3akhB-550" value="No" style="edgeLabel;html=1;align=center;verticalAlign=middle;resizable=0;points=[];" vertex="1" connectable="0" parent="uPHYr8hVOU7tiOj3akhB-549">
          <mxGeometry x="-0.052" y="-1" relative="1" as="geometry">
            <mxPoint as="offset" />
          </mxGeometry>
        </mxCell>
        <mxCell id="uPHYr8hVOU7tiOj3akhB-551" style="edgeStyle=orthogonalEdgeStyle;rounded=0;orthogonalLoop=1;jettySize=auto;html=1;entryX=0.5;entryY=0;entryDx=0;entryDy=0;" edge="1" parent="1" source="uPHYr8hVOU7tiOj3akhB-509" target="uPHYr8hVOU7tiOj3akhB-475">
          <mxGeometry relative="1" as="geometry">
            <Array as="points">
              <mxPoint x="141" y="479" />
              <mxPoint x="540" y="479" />
            </Array>
          </mxGeometry>
        </mxCell>
        <mxCell id="uPHYr8hVOU7tiOj3akhB-552" value="Yes" style="edgeLabel;html=1;align=center;verticalAlign=middle;resizable=0;points=[];" vertex="1" connectable="0" parent="uPHYr8hVOU7tiOj3akhB-551">
          <mxGeometry x="-0.6387" y="1" relative="1" as="geometry">
            <mxPoint as="offset" />
          </mxGeometry>
        </mxCell>
        <mxCell id="uPHYr8hVOU7tiOj3akhB-553" style="edgeStyle=orthogonalEdgeStyle;rounded=0;orthogonalLoop=1;jettySize=auto;html=1;entryX=0;entryY=0.5;entryDx=0;entryDy=0;" edge="1" parent="1" source="uPHYr8hVOU7tiOj3akhB-478" target="uPHYr8hVOU7tiOj3akhB-475">
          <mxGeometry relative="1" as="geometry" />
        </mxCell>
        <mxCell id="uPHYr8hVOU7tiOj3akhB-554" value="No" style="edgeLabel;html=1;align=center;verticalAlign=middle;resizable=0;points=[];" vertex="1" connectable="0" parent="uPHYr8hVOU7tiOj3akhB-553">
          <mxGeometry x="-0.32" y="1" relative="1" as="geometry">
            <mxPoint as="offset" />
          </mxGeometry>
        </mxCell>
        <mxCell id="uPHYr8hVOU7tiOj3akhB-555" style="edgeStyle=orthogonalEdgeStyle;rounded=0;orthogonalLoop=1;jettySize=auto;html=1;entryX=0;entryY=0.5;entryDx=0;entryDy=0;" edge="1" parent="1" source="uPHYr8hVOU7tiOj3akhB-475" target="uPHYr8hVOU7tiOj3akhB-470">
          <mxGeometry relative="1" as="geometry" />
        </mxCell>
        <mxCell id="uPHYr8hVOU7tiOj3akhB-556" value="No" style="edgeLabel;html=1;align=center;verticalAlign=middle;resizable=0;points=[];" vertex="1" connectable="0" parent="uPHYr8hVOU7tiOj3akhB-555">
          <mxGeometry x="-0.2417" relative="1" as="geometry">
            <mxPoint as="offset" />
          </mxGeometry>
        </mxCell>
        <mxCell id="uPHYr8hVOU7tiOj3akhB-557" style="edgeStyle=orthogonalEdgeStyle;rounded=0;orthogonalLoop=1;jettySize=auto;html=1;entryX=0.5;entryY=0;entryDx=0;entryDy=0;" edge="1" parent="1" source="uPHYr8hVOU7tiOj3akhB-486" target="uPHYr8hVOU7tiOj3akhB-537">
          <mxGeometry relative="1" as="geometry" />
        </mxCell>
        <mxCell id="uPHYr8hVOU7tiOj3akhB-558" value="Yes" style="edgeLabel;html=1;align=center;verticalAlign=middle;resizable=0;points=[];" vertex="1" connectable="0" parent="uPHYr8hVOU7tiOj3akhB-557">
          <mxGeometry x="-0.94" relative="1" as="geometry">
            <mxPoint as="offset" />
          </mxGeometry>
        </mxCell>
        <mxCell id="uPHYr8hVOU7tiOj3akhB-559" style="edgeStyle=orthogonalEdgeStyle;rounded=0;orthogonalLoop=1;jettySize=auto;html=1;entryX=0.5;entryY=0;entryDx=0;entryDy=0;" edge="1" parent="1" source="uPHYr8hVOU7tiOj3akhB-504" target="uPHYr8hVOU7tiOj3akhB-537">
          <mxGeometry relative="1" as="geometry" />
        </mxCell>
        <mxCell id="uPHYr8hVOU7tiOj3akhB-560" style="edgeStyle=orthogonalEdgeStyle;rounded=0;orthogonalLoop=1;jettySize=auto;html=1;entryX=0.5;entryY=0;entryDx=0;entryDy=0;" edge="1" parent="1" source="uPHYr8hVOU7tiOj3akhB-452" target="uPHYr8hVOU7tiOj3akhB-537">
          <mxGeometry relative="1" as="geometry" />
        </mxCell>
        <mxCell id="uPHYr8hVOU7tiOj3akhB-561" style="edgeStyle=orthogonalEdgeStyle;rounded=0;orthogonalLoop=1;jettySize=auto;html=1;entryX=1;entryY=0.5;entryDx=0;entryDy=0;" edge="1" parent="1" source="uPHYr8hVOU7tiOj3akhB-467" target="uPHYr8hVOU7tiOj3akhB-540">
          <mxGeometry relative="1" as="geometry">
            <Array as="points">
              <mxPoint x="1330" y="949" />
            </Array>
          </mxGeometry>
        </mxCell>
        <mxCell id="uPHYr8hVOU7tiOj3akhB-562" value="No" style="edgeLabel;html=1;align=center;verticalAlign=middle;resizable=0;points=[];" vertex="1" connectable="0" parent="uPHYr8hVOU7tiOj3akhB-561">
          <mxGeometry x="-0.9836" y="-2" relative="1" as="geometry">
            <mxPoint as="offset" />
          </mxGeometry>
        </mxCell>
        <mxCell id="uPHYr8hVOU7tiOj3akhB-563" style="edgeStyle=orthogonalEdgeStyle;rounded=0;orthogonalLoop=1;jettySize=auto;html=1;entryX=0;entryY=0.5;entryDx=0;entryDy=0;" edge="1" parent="1" source="uPHYr8hVOU7tiOj3akhB-464" target="uPHYr8hVOU7tiOj3akhB-467">
          <mxGeometry relative="1" as="geometry" />
        </mxCell>
        <mxCell id="uPHYr8hVOU7tiOj3akhB-564" value="No" style="edgeLabel;html=1;align=center;verticalAlign=middle;resizable=0;points=[];" vertex="1" connectable="0" parent="uPHYr8hVOU7tiOj3akhB-563">
          <mxGeometry x="-0.3622" y="-1" relative="1" as="geometry">
            <mxPoint as="offset" />
          </mxGeometry>
        </mxCell>
        <mxCell id="uPHYr8hVOU7tiOj3akhB-565" style="edgeStyle=orthogonalEdgeStyle;rounded=0;orthogonalLoop=1;jettySize=auto;html=1;entryX=0.5;entryY=0;entryDx=0;entryDy=0;" edge="1" parent="1" source="uPHYr8hVOU7tiOj3akhB-523" target="uPHYr8hVOU7tiOj3akhB-464">
          <mxGeometry relative="1" as="geometry">
            <Array as="points">
              <mxPoint x="1130" y="729" />
              <mxPoint x="1130" y="729" />
            </Array>
          </mxGeometry>
        </mxCell>
        <mxCell id="uPHYr8hVOU7tiOj3akhB-566" style="edgeStyle=orthogonalEdgeStyle;rounded=0;orthogonalLoop=1;jettySize=auto;html=1;entryX=0.5;entryY=0;entryDx=0;entryDy=0;" edge="1" parent="1" source="uPHYr8hVOU7tiOj3akhB-527" target="uPHYr8hVOU7tiOj3akhB-467">
          <mxGeometry relative="1" as="geometry" />
        </mxCell>
        <mxCell id="uPHYr8hVOU7tiOj3akhB-567" style="edgeStyle=orthogonalEdgeStyle;rounded=0;orthogonalLoop=1;jettySize=auto;html=1;entryX=0.5;entryY=0;entryDx=0;entryDy=0;" edge="1" parent="1" source="uPHYr8hVOU7tiOj3akhB-478" target="uPHYr8hVOU7tiOj3akhB-534">
          <mxGeometry relative="1" as="geometry">
            <mxPoint x="350" y="679" as="targetPoint" />
          </mxGeometry>
        </mxCell>
        <mxCell id="uPHYr8hVOU7tiOj3akhB-568" value="Yes" style="edgeLabel;html=1;align=center;verticalAlign=middle;resizable=0;points=[];" vertex="1" connectable="0" parent="uPHYr8hVOU7tiOj3akhB-567">
          <mxGeometry x="-0.3983" y="-2" relative="1" as="geometry">
            <mxPoint as="offset" />
          </mxGeometry>
        </mxCell>
        <mxCell id="uPHYr8hVOU7tiOj3akhB-569" style="edgeStyle=orthogonalEdgeStyle;rounded=0;orthogonalLoop=1;jettySize=auto;html=1;entryX=0.5;entryY=0;entryDx=0;entryDy=0;" edge="1" parent="1" source="uPHYr8hVOU7tiOj3akhB-483" target="uPHYr8hVOU7tiOj3akhB-537">
          <mxGeometry relative="1" as="geometry">
            <Array as="points">
              <mxPoint x="140" y="889" />
              <mxPoint x="1481" y="889" />
            </Array>
          </mxGeometry>
        </mxCell>
        <mxCell id="uPHYr8hVOU7tiOj3akhB-570" value="Yes" style="edgeLabel;html=1;align=center;verticalAlign=middle;resizable=0;points=[];" vertex="1" connectable="0" parent="uPHYr8hVOU7tiOj3akhB-569">
          <mxGeometry x="-0.969" relative="1" as="geometry">
            <mxPoint as="offset" />
          </mxGeometry>
        </mxCell>
        <mxCell id="uPHYr8hVOU7tiOj3akhB-571" style="edgeStyle=orthogonalEdgeStyle;rounded=0;orthogonalLoop=1;jettySize=auto;html=1;entryX=0.5;entryY=0;entryDx=0;entryDy=0;" edge="1" parent="1" source="uPHYr8hVOU7tiOj3akhB-534" target="uPHYr8hVOU7tiOj3akhB-537">
          <mxGeometry relative="1" as="geometry">
            <mxPoint x="760" y="799" as="targetPoint" />
            <Array as="points">
              <mxPoint x="350" y="889" />
              <mxPoint x="1481" y="889" />
            </Array>
          </mxGeometry>
        </mxCell>
        <mxCell id="uPHYr8hVOU7tiOj3akhB-572" value="Yes" style="edgeLabel;html=1;align=center;verticalAlign=middle;resizable=0;points=[];" vertex="1" connectable="0" parent="uPHYr8hVOU7tiOj3akhB-571">
          <mxGeometry x="-0.9579" relative="1" as="geometry">
            <mxPoint as="offset" />
          </mxGeometry>
        </mxCell>
        <mxCell id="uPHYr8hVOU7tiOj3akhB-573" style="edgeStyle=orthogonalEdgeStyle;rounded=0;orthogonalLoop=1;jettySize=auto;html=1;entryX=0.5;entryY=0;entryDx=0;entryDy=0;" edge="1" parent="1" source="uPHYr8hVOU7tiOj3akhB-475" target="uPHYr8hVOU7tiOj3akhB-537">
          <mxGeometry relative="1" as="geometry">
            <Array as="points">
              <mxPoint x="540" y="889" />
              <mxPoint x="1481" y="889" />
            </Array>
          </mxGeometry>
        </mxCell>
        <mxCell id="uPHYr8hVOU7tiOj3akhB-574" value="Yes&amp;nbsp;" style="edgeLabel;html=1;align=center;verticalAlign=middle;resizable=0;points=[];" vertex="1" connectable="0" parent="uPHYr8hVOU7tiOj3akhB-573">
          <mxGeometry x="-0.9505" y="-1" relative="1" as="geometry">
            <mxPoint as="offset" />
          </mxGeometry>
        </mxCell>
        <mxCell id="uPHYr8hVOU7tiOj3akhB-575" style="edgeStyle=orthogonalEdgeStyle;rounded=0;orthogonalLoop=1;jettySize=auto;html=1;entryX=1;entryY=0.5;entryDx=0;entryDy=0;" edge="1" parent="1" source="uPHYr8hVOU7tiOj3akhB-470" target="uPHYr8hVOU7tiOj3akhB-540">
          <mxGeometry relative="1" as="geometry">
            <Array as="points">
              <mxPoint x="760" y="949" />
            </Array>
          </mxGeometry>
        </mxCell>
        <mxCell id="uPHYr8hVOU7tiOj3akhB-576" value="No&amp;nbsp;" style="edgeLabel;html=1;align=center;verticalAlign=middle;resizable=0;points=[];" vertex="1" connectable="0" parent="uPHYr8hVOU7tiOj3akhB-575">
          <mxGeometry x="-0.9416" y="1" relative="1" as="geometry">
            <mxPoint as="offset" />
          </mxGeometry>
        </mxCell>
        <mxCell id="uPHYr8hVOU7tiOj3akhB-577" style="edgeStyle=orthogonalEdgeStyle;rounded=0;orthogonalLoop=1;jettySize=auto;html=1;entryX=0.5;entryY=0;entryDx=0;entryDy=0;" edge="1" parent="1" target="uPHYr8hVOU7tiOj3akhB-486">
          <mxGeometry relative="1" as="geometry">
            <mxPoint x="465" y="309" as="sourcePoint" />
            <Array as="points">
              <mxPoint x="465" y="339" />
              <mxPoint x="465" y="339" />
            </Array>
          </mxGeometry>
        </mxCell>
        <mxCell id="uPHYr8hVOU7tiOj3akhB-578" style="edgeStyle=orthogonalEdgeStyle;rounded=0;orthogonalLoop=1;jettySize=auto;html=1;entryX=0.533;entryY=0.028;entryDx=0;entryDy=0;entryPerimeter=0;" edge="1" parent="1" source="uPHYr8hVOU7tiOj3akhB-439" target="uPHYr8hVOU7tiOj3akhB-449">
          <mxGeometry relative="1" as="geometry">
            <mxPoint x="300" y="29" as="targetPoint" />
            <Array as="points">
              <mxPoint x="209" y="9" />
              <mxPoint x="304" y="9" />
            </Array>
          </mxGeometry>
        </mxCell>
        <mxCell id="uPHYr8hVOU7tiOj3akhB-579" style="edgeStyle=orthogonalEdgeStyle;rounded=0;orthogonalLoop=1;jettySize=auto;html=1;" edge="1" parent="1" source="uPHYr8hVOU7tiOj3akhB-464">
          <mxGeometry relative="1" as="geometry">
            <mxPoint x="1481" y="919" as="targetPoint" />
            <Array as="points">
              <mxPoint x="1130" y="889" />
              <mxPoint x="1481" y="889" />
            </Array>
          </mxGeometry>
        </mxCell>
        <mxCell id="uPHYr8hVOU7tiOj3akhB-580" value="Yes" style="edgeLabel;html=1;align=center;verticalAlign=middle;resizable=0;points=[];" vertex="1" connectable="0" parent="uPHYr8hVOU7tiOj3akhB-579">
          <mxGeometry x="-0.9295" relative="1" as="geometry">
            <mxPoint as="offset" />
          </mxGeometry>
        </mxCell>
        <mxCell id="uPHYr8hVOU7tiOj3akhB-581" value="&lt;font style=&quot;font-size: 21px;&quot;&gt;LEGEND&lt;/font&gt;" style="text;html=1;align=center;verticalAlign=middle;resizable=0;points=[];autosize=1;strokeColor=none;fillColor=none;" vertex="1" parent="1">
          <mxGeometry x="1105" y="-821" width="110" height="40" as="geometry" />
        </mxCell>
        <mxCell id="uPHYr8hVOU7tiOj3akhB-582" value="" style="endArrow=none;html=1;rounded=0;" edge="1" parent="1">
          <mxGeometry width="50" height="50" relative="1" as="geometry">
            <mxPoint x="1350" y="-781.5600000000001" as="sourcePoint" />
            <mxPoint x="970" y="-781.5600000000001" as="targetPoint" />
            <Array as="points">
              <mxPoint x="1350" y="-781.5600000000001" />
            </Array>
          </mxGeometry>
        </mxCell>
        <mxCell id="uPHYr8hVOU7tiOj3akhB-583" value="" style="group" vertex="1" connectable="0" parent="1">
          <mxGeometry x="1270" y="-741" width="130" height="40" as="geometry" />
        </mxCell>
        <mxCell id="uPHYr8hVOU7tiOj3akhB-584" value="" style="rounded=0;whiteSpace=wrap;html=1;strokeColor=#047d7e;fillColor=#047d7e;" vertex="1" parent="uPHYr8hVOU7tiOj3akhB-583">
          <mxGeometry width="113.75" height="39.99698947391057" as="geometry" />
        </mxCell>
        <mxCell id="uPHYr8hVOU7tiOj3akhB-585" value="User Preference &amp;amp; Value" style="text;html=1;align=center;verticalAlign=middle;whiteSpace=wrap;rounded=0;fontColor=#ffffff;" vertex="1" parent="uPHYr8hVOU7tiOj3akhB-583">
          <mxGeometry x="10" y="9.003010526089383" width="91.87" height="19.35" as="geometry" />
        </mxCell>
        <mxCell id="uPHYr8hVOU7tiOj3akhB-219" value="" style="group" vertex="1" connectable="0" parent="1">
          <mxGeometry x="-3.6415315207705135e-14" y="-750" width="460" height="170" as="geometry" />
        </mxCell>
        <mxCell id="uPHYr8hVOU7tiOj3akhB-220" value="" style="group;rounded=1;glass=0;" vertex="1" connectable="0" parent="uPHYr8hVOU7tiOj3akhB-219">
          <mxGeometry x="90" y="10" width="330" height="60" as="geometry" />
        </mxCell>
        <mxCell id="uPHYr8hVOU7tiOj3akhB-221" style="edgeStyle=orthogonalEdgeStyle;rounded=0;orthogonalLoop=1;jettySize=auto;html=1;" edge="1" parent="uPHYr8hVOU7tiOj3akhB-220" source="uPHYr8hVOU7tiOj3akhB-222">
          <mxGeometry relative="1" as="geometry">
            <mxPoint x="119" y="110" as="targetPoint" />
          </mxGeometry>
        </mxCell>
        <mxCell id="uPHYr8hVOU7tiOj3akhB-222" value="" style="rounded=0;whiteSpace=wrap;html=1;strokeColor=#82b366;fillColor=#00693B;" vertex="1" parent="uPHYr8hVOU7tiOj3akhB-220">
          <mxGeometry y="1.935483870967742" width="237.1875" height="58.064516129032256" as="geometry" />
        </mxCell>
        <mxCell id="uPHYr8hVOU7tiOj3akhB-223" value="What is the users &lt;b&gt;status preference&lt;/b&gt; for triggering push&lt;b&gt;&amp;nbsp;n&lt;/b&gt;otifications?" style="text;html=1;align=center;verticalAlign=middle;whiteSpace=wrap;rounded=0;fontColor=#ffffff;" vertex="1" parent="uPHYr8hVOU7tiOj3akhB-220">
          <mxGeometry x="6.290000000000001" y="15.49" width="224.61" height="29.03" as="geometry" />
        </mxCell>
        <mxCell id="uPHYr8hVOU7tiOj3akhB-224" value="" style="group;rounded=1;glass=0;" vertex="1" connectable="0" parent="uPHYr8hVOU7tiOj3akhB-219">
          <mxGeometry x="-52.86" y="109.03" width="180" height="60" as="geometry" />
        </mxCell>
        <mxCell id="uPHYr8hVOU7tiOj3akhB-225" value="" style="group" vertex="1" connectable="0" parent="uPHYr8hVOU7tiOj3akhB-224">
          <mxGeometry x="-38.57142857142857" y="1.935483870967742" width="129.375" height="58.064516129032256" as="geometry" />
        </mxCell>
        <mxCell id="uPHYr8hVOU7tiOj3akhB-226" value="" style="rounded=0;whiteSpace=wrap;html=1;strokeColor=#82b366;fillColor=#00693B;" vertex="1" parent="uPHYr8hVOU7tiOj3akhB-225">
          <mxGeometry x="39.2" width="129.375" height="58.064516129032256" as="geometry" />
        </mxCell>
        <mxCell id="uPHYr8hVOU7tiOj3akhB-227" value="Trigger when offline" style="text;html=1;align=center;verticalAlign=middle;whiteSpace=wrap;rounded=0;fontColor=#ffffff;" vertex="1" parent="uPHYr8hVOU7tiOj3akhB-225">
          <mxGeometry x="50.32" y="14.52" width="107.13" height="29.03" as="geometry" />
        </mxCell>
        <mxCell id="uPHYr8hVOU7tiOj3akhB-228" value="" style="group;rounded=1;glass=0;" vertex="1" connectable="0" parent="uPHYr8hVOU7tiOj3akhB-219">
          <mxGeometry x="130" y="110" width="170" height="60" as="geometry" />
        </mxCell>
        <mxCell id="uPHYr8hVOU7tiOj3akhB-229" value="" style="group" vertex="1" connectable="0" parent="uPHYr8hVOU7tiOj3akhB-228">
          <mxGeometry x="15" y="0.97" width="140" height="58.06" as="geometry" />
        </mxCell>
        <mxCell id="uPHYr8hVOU7tiOj3akhB-230" value="" style="rounded=0;whiteSpace=wrap;html=1;strokeColor=#82b366;fillColor=#00693B;" vertex="1" parent="uPHYr8hVOU7tiOj3akhB-229">
          <mxGeometry width="140" height="58.06" as="geometry" />
        </mxCell>
        <mxCell id="uPHYr8hVOU7tiOj3akhB-231" value="Trigger when &lt;b&gt;away or offline&lt;/b&gt;" style="text;html=1;align=center;verticalAlign=middle;whiteSpace=wrap;rounded=0;fontColor=#ffffff;" vertex="1" parent="uPHYr8hVOU7tiOj3akhB-229">
          <mxGeometry x="6.079999999999998" y="14.509999999999998" width="127.85" height="29.03" as="geometry" />
        </mxCell>
        <mxCell id="uPHYr8hVOU7tiOj3akhB-232" value="" style="group;rounded=1;glass=0;" vertex="1" connectable="0" parent="uPHYr8hVOU7tiOj3akhB-219">
          <mxGeometry x="360" y="110" width="140" height="60" as="geometry" />
        </mxCell>
        <mxCell id="uPHYr8hVOU7tiOj3akhB-233" value="" style="group" vertex="1" connectable="0" parent="uPHYr8hVOU7tiOj3akhB-232">
          <mxGeometry y="1.935483870967742" width="140" height="58.064516129032256" as="geometry" />
        </mxCell>
        <mxCell id="uPHYr8hVOU7tiOj3akhB-234" value="" style="rounded=0;whiteSpace=wrap;html=1;strokeColor=#82b366;fillColor=#00693B;" vertex="1" parent="uPHYr8hVOU7tiOj3akhB-233">
          <mxGeometry x="-19.69" width="140" height="58.06" as="geometry" />
        </mxCell>
        <mxCell id="uPHYr8hVOU7tiOj3akhB-235" value="Trigger when online, away or offline" style="text;html=1;align=center;verticalAlign=middle;whiteSpace=wrap;rounded=0;fontColor=#ffffff;" vertex="1" parent="uPHYr8hVOU7tiOj3akhB-233">
          <mxGeometry x="-9.680000000000001" y="14.52" width="119.99" height="29.03" as="geometry" />
        </mxCell>
        <mxCell id="uPHYr8hVOU7tiOj3akhB-237" style="edgeStyle=orthogonalEdgeStyle;rounded=0;orthogonalLoop=1;jettySize=auto;html=1;entryX=0.5;entryY=0;entryDx=0;entryDy=0;" edge="1" parent="uPHYr8hVOU7tiOj3akhB-219" source="uPHYr8hVOU7tiOj3akhB-222" target="uPHYr8hVOU7tiOj3akhB-234">
          <mxGeometry relative="1" as="geometry">
            <mxPoint x="300" y="110" as="targetPoint" />
            <Array as="points">
              <mxPoint x="209" y="80" />
              <mxPoint x="410" y="80" />
            </Array>
          </mxGeometry>
        </mxCell>
        <mxCell id="uPHYr8hVOU7tiOj3akhB-236" style="edgeStyle=orthogonalEdgeStyle;rounded=0;orthogonalLoop=1;jettySize=auto;html=1;entryX=0.5;entryY=0;entryDx=0;entryDy=0;exitX=0.5;exitY=1;exitDx=0;exitDy=0;" edge="1" parent="uPHYr8hVOU7tiOj3akhB-219" target="uPHYr8hVOU7tiOj3akhB-226" source="uPHYr8hVOU7tiOj3akhB-222">
          <mxGeometry relative="1" as="geometry">
            <mxPoint x="22.23169642857149" y="106.11580645161281" as="targetPoint" />
            <Array as="points">
              <mxPoint x="209" y="80" />
              <mxPoint x="12" y="80" />
              <mxPoint x="12" y="100" />
              <mxPoint x="12" y="100" />
            </Array>
            <mxPoint x="212.46000000000004" y="70" as="sourcePoint" />
          </mxGeometry>
        </mxCell>
        <mxCell id="uPHYr8hVOU7tiOj3akhB-603" style="edgeStyle=orthogonalEdgeStyle;rounded=0;orthogonalLoop=1;jettySize=auto;html=1;entryX=1;entryY=0.5;entryDx=0;entryDy=0;" edge="1" parent="1" source="uPHYr8hVOU7tiOj3akhB-217" target="uPHYr8hVOU7tiOj3akhB-214">
          <mxGeometry relative="1" as="geometry" />
        </mxCell>
        <mxCell id="uPHYr8hVOU7tiOj3akhB-606" value="No" style="edgeLabel;html=1;align=center;verticalAlign=middle;resizable=0;points=[];" vertex="1" connectable="0" parent="uPHYr8hVOU7tiOj3akhB-603">
          <mxGeometry x="-0.4368" relative="1" as="geometry">
            <mxPoint as="offset" />
          </mxGeometry>
        </mxCell>
        <mxCell id="uPHYr8hVOU7tiOj3akhB-604" style="edgeStyle=orthogonalEdgeStyle;rounded=0;orthogonalLoop=1;jettySize=auto;html=1;entryX=1;entryY=0.5;entryDx=0;entryDy=0;" edge="1" parent="1" source="uPHYr8hVOU7tiOj3akhB-214" target="uPHYr8hVOU7tiOj3akhB-241">
          <mxGeometry relative="1" as="geometry" />
        </mxCell>
        <mxCell id="uPHYr8hVOU7tiOj3akhB-607" value="No" style="edgeLabel;html=1;align=center;verticalAlign=middle;resizable=0;points=[];" vertex="1" connectable="0" parent="uPHYr8hVOU7tiOj3akhB-604">
          <mxGeometry x="-0.4709" relative="1" as="geometry">
            <mxPoint as="offset" />
          </mxGeometry>
        </mxCell>
      </root>
    </mxGraphModel>
  </diagram>
</mxfile>
